<?xml version="1.0" encoding="utf-8"?>
<svg viewBox="250.849 132.011 231.953 224.739" xmlns="http://www.w3.org/2000/svg" xmlns:bx="https://boxy-svg.com">
  <ellipse style="stroke: rgb(0, 0, 0);" cx="367.405" cy="245.106" rx="39.724" ry="40.045"/>
  <path style="stroke: rgb(0, 0, 0);" d="M 361.98 179.75 L 361.98 132.011 L 371.681 132.504 L 372.553 179.389 L 361.98 179.75 Z"/>
  <path style="fill: rgb(216, 216, 216); stroke: rgb(0, 0, 0);" d="M 364.98 356.75 L 364.98 309.011"/>
  <path style="fill: rgb(216, 216, 216); stroke: rgb(0, 0, 0);" d="M 458.719 268.951 L 458.719 221.212" transform="matrix(0, 1, -1, 0, 703.800487, -213.637485)"/>
  <path style="fill: rgb(216, 216, 216); stroke: rgb(0, 0, 0);" d="M 274.719 268.951 L 274.719 221.212" transform="matrix(0, 1, -1, 0, 519.800484, -29.637488)"/>
  <path style="fill: rgb(216, 216, 216); stroke: rgb(0, 0, 0);" d="M 432.635 327.965 L 432.635 280.226" transform="matrix(-0.617231, 0.786782, -0.786782, -0.617231, 939.753981, 153.101763)" bx:origin="0 0.522"/>
  <path style="fill: rgb(216, 216, 216); stroke: rgb(0, 0, 0);" d="M 300.635 202.965 L 300.635 155.226" transform="matrix(-0.617231, 0.786782, -0.786782, -0.617231, 627.931711, 54.803094)" bx:origin="0 0.522"/>
  <path style="fill: rgb(216, 216, 216); stroke: rgb(0, 0, 0);" d="M 435.402 204.307 L 435.402 156.568" transform="matrix(-0.719873, -0.694106, 0.694106, -0.719873, 622.864328, 614.351022)" bx:origin="0 0.522"/>
  <path style="fill: rgb(216, 216, 216); stroke: rgb(0, 0, 0);" d="M 304.402 330.307 L 304.402 282.568" transform="matrix(-0.719873, -0.694106, 0.694106, -0.719873, 310.103612, 740.127147)" bx:origin="0 0.522"/>
  <path style="stroke: rgb(0, 0, 0);" d="M 361.98 356.75 L 361.98 309.011 L 371.681 309.504 L 372.553 356.389 L 361.98 356.75 Z"/>
  <path style="stroke: rgb(0, 0, 0);" d="M 270.636 267.698 L 270.636 219.959 L 280.346 220.452 L 281.04 267.337 L 270.636 267.698 Z" transform="matrix(0.017518, -0.999847, 0.999847, 0.017518, 26.23231, 514.352974)"/>
  <path style="stroke: rgb(0, 0, 0);" d="M 454.406 267.493 L 454.406 219.754 L 463.546 220.247 L 464.277 267.132 L 454.406 267.493 Z" transform="matrix(0.017518, -0.999847, 0.999847, 0.017518, 207.21738, 698.12678)"/>
  <path style="stroke: rgb(0, 0, 0);" d="M 428.98 207.75 L 428.98 160.011 L 443.269 160.504 L 444.553 207.389 L 428.98 207.75 Z" transform="matrix(-0.638894, -0.769295, 0.769295, -0.638894, 574.355721, 637.362864)"/>
  <path style="stroke: rgb(0, 0, 0);" d="M 294.98 331.75 L 294.98 284.011 L 309.269 284.504 L 310.553 331.389 L 294.98 331.75 Z" transform="matrix(-0.638894, -0.769295, 0.769295, -0.638894, 259.351353, 737.500194)"/>
  <path style="stroke: rgb(0, 0, 0);" d="M 425.98 329.75 L 425.98 282.011 L 440.269 282.504 L 441.553 329.389 L 425.98 329.75 Z" transform="matrix(0.659534, -0.751675, 0.751675, 0.659534, -82.239892, 430.193244)"/>
  <path style="stroke: rgb(0, 0, 0);" d="M 292.98 204.75 L 292.98 157.011 L 307.269 157.504 L 308.553 204.389 L 292.98 204.75 Z" transform="matrix(0.659534, -0.751675, 0.751675, 0.659534, -33.562539, 287.662266)"/>
</svg>